<svg xmlns="http://www.w3.org/2000/svg">
    <symbol id="chat" viewBox="0 0 20 20">
      <path d="M17,0H3.5C2.1,0,1,1.1,1,2.5v17l3-3h13c1.4,0,2.5-1.1,2.5-2.5V2.5C19.5,1.1,18.4,0,17,0z M5.5,10
	C4.7,10,4,9.3,4,8.5S4.7,7,5.5,7S7,7.7,7,8.5S6.3,10,5.5,10z M10.5,10C9.7,10,9,9.3,9,8.5S9.7,7,10.5,7S12,7.7,12,8.5
	S11.3,10,10.5,10z M15.5,10C14.7,10,14,9.3,14,8.5S14.7,7,15.5,7S17,7.7,17,8.5S16.3,10,15.5,10z"/>
    </symbol>
    <symbol id="profile" viewBox="0 0 20 20">
      <path d="M18.5,17C18.5,17,18.5,17,18.5,17c0.2,0,0.3-0.2,0.2-0.3c-0.6-2.1-2.7-2.5-3.9-2.8c-0.3-0.1-0.5-0.1-0.6-0.2
	c-0.8-0.3-1.3-0.9-1.5-1.5c2.2,0.2,3.2-0.7,3.3-0.8c0.1,0,0.1-0.1,0.1-0.2c0-0.1-0.1-0.1-0.1-0.2c-1.3-0.7-1.3-3.3-1.3-4.2
	c0-2.7-1.8-4.8-4.1-4.8c0,0-0.1,0-0.1,0c0,0,0,0,0,0C8.1,2,6.1,4.2,6.1,6.8c0,1,0,3.5-1.3,4.2c-0.1,0-0.1,0.1-0.1,0.2
	c0,0.1,0,0.2,0.1,0.2c0.1,0.1,1.5,1.1,3.2,0.8c-0.2,0.6-0.7,1.1-1.5,1.5c-0.1,0-0.3,0.1-0.6,0.2c-1.2,0.3-3.4,0.8-4,2.9
	C2,16.8,2,17,2.2,17L18.5,17z"/>
    </symbol>
    <symbol id="gear" viewBox="0 0 20 20">
      <path d="M10,7c-1.7,0-3,1.4-3,3c0,1.7,1.3,3,3,3c1.7,0,3-1.4,3-3C13,8.3,11.7,7,10,7z M17.2,12.1l-0.7,1.6l1.3,2.6
	l-1.6,1.6l-2.6-1.2l-1.6,0.6l-0.8,2.4L11.2,20H8.9l-1-2.8l-1.6-0.6l-2.6,1.3l-1.6-1.6l1.2-2.6l-0.6-1.6L0,11.2V8.9l2.8-1l0.6-1.6
	L2.2,4.1L2.1,3.8l1.6-1.6l2.6,1.2l1.6-0.6l0.8-2.4L8.8,0h2.3l1,2.8l1.6,0.6l2.6-1.3l1.6,1.6l-1.2,2.6l0.6,1.6L20,8.8v2.3L17.2,12.1
	L17.2,12.1z"/>
    </symbol>
</svg>
